<svg xmlns="http://www.w3.org/2000/svg" viewBox="0 0 96 96" role="img" aria-label="Server">
  <defs>
    <linearGradient id="svg1" x1="0" y1="0" x2="0" y2="1">
      <stop offset="0%" stop-color="#64748b"/>
      <stop offset="100%" stop-color="#334155"/>
    </linearGradient>
  </defs>
  <rect x="20" y="14" width="56" height="68" rx="6" fill="url(#svg1)" stroke="#0f172a" stroke-width="1.8"/>
  <g fill="#1e293b" stroke="#475569" stroke-width="0.6">
    <rect x="26" y="22" width="44" height="14" rx="2"/>
    <rect x="26" y="40" width="44" height="14" rx="2"/>
    <rect x="26" y="58" width="44" height="14" rx="2"/>
  </g>
  <g fill="#22d3ee">
    <circle cx="31" cy="29" r="1.6"/>
    <circle cx="31" cy="47" r="1.6"/>
    <circle cx="31" cy="65" r="1.6"/>
  </g>
  <g fill="#f59e0b">
    <circle cx="37" cy="29" r="1.6"/>
    <circle cx="37" cy="47" r="1.6"/>
    <circle cx="37" cy="65" r="1.6"/>
  </g>
  <g fill="#cbd5e1" opacity="0.9">
    <rect x="45" y="27" width="20" height="1.8" rx="1"/>
    <rect x="45" y="31" width="14" height="1.8" rx="1"/>
    <rect x="45" y="45" width="20" height="1.8" rx="1"/>
    <rect x="45" y="49" width="14" height="1.8" rx="1"/>
    <rect x="45" y="63" width="20" height="1.8" rx="1"/>
    <rect x="45" y="67" width="14" height="1.8" rx="1"/>
  </g>
</svg>
